<svg xmlns="http://www.w3.org/2000/svg" version="1.0" width="220.000000" height="131.741" viewBox="0 0 500.000000 500.000000" preserveAspectRatio="xMidYMid meet">
<metadata>
Created by potrace 1.16, written by Peter Selinger 2001-2019
</metadata>
<g transform="translate(0.000000,500.000000) scale(0.100000,-0.100000)" fill="#000000" stroke="none">
<path d="M2497 3736 c-49 -18 -64 -32 -89 -80 -27 -54 -28 -150 -1 -203 31 -61 87 -84 198 -82 67 1 101 -3 134 -16 37 -15 45 -16 52 -4 27 47 31 48 87 27 50 -20 52 -22 52 -58 0 -35 3 -38 44 -54 24 -9 52 -26 61 -36 22 -25 33 -25 65 0 l25 19 45 -37 c25 -19 46 -37 48 -38 2 -1 -4 -16 -13 -33 -15 -31 -15 -32 12 -56 15 -13 31 -25 35 -25 4 0 19 -18 33 -40 l25 -40 105 70 c58 39 105 69 105 66 0 -2 -31 -58 -69 -124 l-69 -121 33 -53 c18 -29 39 -74 45 -101 12 -45 14 -47 49 -47 37 0 37 0 49 -57 13 -61 14 -59 -32 -88 -22 -14 0 -109 23 -100 8 3 83 49 167 101 l151 95 -15 64 -15 63 -41 6 c-23 3 -95 8 -161 12 -66 4 -125 9 -132 13 -7 3 46 43 122 91 74 47 135 90 135 95 0 6 -11 23 -24 40 l-24 30 -101 -68 c-55 -37 -101 -65 -101 -62 0 3 29 57 65 120 36 63 65 117 65 121 0 13 -62 104 -71 104 -4 0 -68 -38 -140 -86 -72 -47 -132 -84 -134 -82 -1 2 24 75 57 163 l58 160 -37 33 c-66 57 -58 59 -203 -38 -74 -49 -135 -88 -135 -87 -1 1 2 74 5 162 4 88 3 162 -1 165 -15 10 -119 43 -123 39 -1 -2 -49 -62 -106 -134 -56 -71 -105 -132 -108 -135 -2 -3 -1 33 3 79 5 65 4 86 -7 92 -7 5 -43 9 -80 9 l-68 0 0 -40 c0 -38 2 -40 30 -40 27 0 30 -3 30 -30 0 -28 -3 -30 -35 -30 -25 0 -44 8 -62 26 -23 23 -25 31 -21 85 7 93 45 118 149 95 32 -7 36 -5 47 19 20 44 15 53 -38 64 -66 14 -106 13 -153 -3z"/>
<path d="M1989 3657 c-132 -37 -177 -145 -114 -274 47 -95 135 -128 233 -88 103 44 134 125 92 239 -20 53 -85 126 -113 126 -6 0 -21 2 -32 5 -11 2 -41 -2 -66 -8z m67 -92 c12 -8 31 -37 43 -65 35 -82 14 -130 -57 -130 -33 0 -55 20 -77 73 -23 55 -19 92 11 116 31 25 52 26 80 6z"/>
<path d="M1652 3471 l-33 -28 80 -89 c44 -48 79 -89 77 -91 -1 -2 -60 18 -130 44 l-127 46 -46 -46 -47 -46 90 -97 c49 -53 105 -114 124 -136 l35 -38 34 31 33 31 -53 56 c-30 32 -70 74 -89 95 l-35 38 50 -19 c28 -10 90 -34 138 -52 l89 -33 46 46 46 46 -80 87 c-43 48 -99 109 -124 136 l-45 48 -33 -29z"/>
<path d="M2303 3216 c-304 -58 -507 -235 -601 -526 -51 -154 -54 -187 -59 -560 -4 -335 -3 -357 15 -390 10 -19 34 -45 52 -57 29 -21 45 -23 148 -23 108 0 117 2 149 26 61 46 67 69 71 268 5 210 -2 274 -31 317 -43 63 -68 74 -183 77 l-104 4 6 41 c35 266 85 395 201 517 33 36 85 80 115 97 123 74 294 110 478 100 407 -23 626 -248 676 -694 l6 -61 -105 -4 c-114 -3 -137 -12 -181 -72 -20 -26 -21 -43 -24 -264 -3 -265 1 -284 68 -329 29 -21 45 -23 148 -23 108 0 117 2 149 26 68 52 68 53 66 410 -1 246 -6 345 -18 420 -62 368 -257 601 -574 686 -99 26 -361 34 -468 14z"/>
<path d="M1319 3108 c-18 -35 -19 -44 -8 -51 8 -4 56 -31 108 -60 107 -59 120 -73 105 -114 -16 -48 -56 -43 -177 22 -112 60 -110 60 -140 0 l-15 -31 109 -58 c60 -31 122 -61 139 -66 87 -25 180 68 180 179 0 58 -38 96 -164 164 -58 31 -108 57 -111 57 -2 0 -14 -19 -26 -42z"/>
<path d="M1158 2732 c-23 -39 -39 -114 -32 -151 11 -51 49 -81 105 -81 50 0 57 5 132 95 21 25 27 28 41 16 22 -19 20 -40 -9 -96 -14 -26 -24 -49 -23 -50 2 -2 20 -8 41 -13 37 -10 37 -10 58 30 46 91 33 190 -31 223 -56 29 -89 20 -142 -37 -26 -29 -48 -56 -48 -60 0 -4 -9 -8 -20 -8 -26 0 -27 35 -3 85 17 36 17 37 -7 56 -34 25 -43 24 -62 -9z"/>
<path d="M1543 2144 l-43 -25 0 -109 0 -109 44 -31 c25 -16 47 -30 50 -30 3 0 6 74 6 165 0 91 -3 165 -7 165 -5 0 -27 -12 -50 -26z"/>
<path d="M3400 2005 c0 -91 3 -165 6 -165 3 0 25 14 50 30 l44 31 0 109 0 109 -43 26 c-24 14 -47 25 -50 25 -4 0 -7 -74 -7 -165z"/>
</g>
</svg>